<svg width="512" height="512" viewBox="0 0 512 512" fill="none" xmlns="http://www.w3.org/2000/svg">
  <defs>
    <linearGradient id="mainGradient" x1="0" y1="0" x2="512" y2="512" gradientUnits="userSpaceOnUse">
      <stop offset="0%" stop-color="#0EA5E9" />
      <stop offset="100%" stop-color="#10B981" />
    </linearGradient>
    <filter id="innerShadow" x="-20%" y="-20%" width="140%" height="140%">
      <feGaussianBlur in="SourceAlpha" stdDeviation="10"/>
      <feOffset dx="4" dy="4" result="offsetblur"/>
      <feFlood flood-color="rgba(0,0,0,0.2)"/>
      <feComposite in2="offsetblur" operator="in"/>
      <feMerge>
        <feMergeNode/>
        <feMergeNode in="SourceGraphic"/>
      </feMerge>
    </filter>
  </defs>
  <rect width="512" height="512" rx="120" fill="url(#mainGradient)"/>
  <g filter="url(#innerShadow)">
    <path d="M256 96C256 96 112 112 96 256C96 368 176 432 256 464C336 432 416 368 416 256C400 112 256 96 256 96Z" fill="white" fill-opacity="0.15"/>
    <path d="M256 120C256 120 136 134 122 256C122 350 190 404 256 432C322 404 390 350 390 256C376 134 256 120 256 120Z" fill="white"/>
    <g transform="translate(166, 170) scale(0.35)">
      <path d="M120 60 C120 30 160 10 190 40 C220 70 120 180 120 180 C120 180 20 70 50 40 C80 10 120 30 120 60 Z" fill="#F43F5E" transform="translate(150, 0)"/>
      <path d="M350 40 C380 10 440 30 440 100 C440 160 380 180 380 180 M350 40 C320 10 260 30 260 100 C260 160 320 180 320 180" stroke="#0EA5E9" stroke-width="30" stroke-linecap="round" fill="none" transform="translate(10, 0)"/>
      <path d="M250 250 C250 250 200 320 200 370 C200 420 250 450 250 450 C250 450 300 420 300 370 C300 320 250 250 250 250 Z" fill="#EF4444" transform="translate(-10, 20)"/>
      <path d="M120 180 Q 250 220 380 180" stroke="#CBD5E1" stroke-width="15" stroke-linecap="round" stroke-dasharray="20 10"/>
    </g>
  </g>
</svg>